<?xml version="1.0" standalone="no"?><!DOCTYPE svg PUBLIC "-//W3C//DTD SVG 1.1//EN" "http://www.w3.org/Graphics/SVG/1.1/DTD/svg11.dtd"><svg t="1688832946965" class="icon" viewBox="0 0 1039 1024" version="1.1" xmlns="http://www.w3.org/2000/svg" p-id="11717" xmlns:xlink="http://www.w3.org/1999/xlink" width="202.9296875" height="200"><path d="M889.120808 463.081305l133.938448 1.293523c0.352779-87.018833 5.174093-152.870923-61.148369-219.193386l-53.857603 52.916858" fill="#FFBB69" p-id="11718"></path><path d="M512 1007.536977c272.110243 0 492.949931-219.310978 495.419384-490.833256l-493.185117-4.703721 351.485531-346.899403C775.761139 73.378043 650.524575 16.463023 511.882407 16.463023" fill="#FFBB69" p-id="11719"></path><path d="M963.086817 459.553514c0.235186-87.018833-4.350942-103.481856-46.096463-169.804318l-166.982086 166.629307 213.078549 3.175011z" fill="#FFD6A4" p-id="11720"></path><path d="M514.116674 512l305.624254-337.84474C741.541571 84.784566 632.532843 29.398254 512.117593 29.398254 273.991732 29.398254 81.139182 245.534221 81.139182 512s192.852549 482.601746 430.978411 482.601746c236.597152 0 428.62655-213.548921 430.860818-478.015618l-428.861737-4.586128z" fill="#FFD6A4" p-id="11721"></path><path d="M176.271934 546.454754m-70.320625 0a70.320625 70.320625 0 1 0 140.64125 0 70.320625 70.320625 0 1 0-140.64125 0Z" fill="#FF5C5C" p-id="11722"></path><path d="M642.175471 837.262288m-70.320625 0a70.320625 70.320625 0 1 0 140.64125 0 70.320625 70.320625 0 1 0-140.64125 0Z" fill="#FF5C5C" p-id="11723"></path><path d="M483.717871 335.142901a70.320625 70.320625 0 1 0 22.531927-138.824613 70.320625 70.320625 0 1 0-22.531927 138.824613Z" fill="#FF5C5C" p-id="11724"></path><path d="M437.681213 616.540193m-105.480937 0a105.480937 105.480937 0 1 0 210.961874 0 105.480937 105.480937 0 1 0-210.961874 0Z" fill="#C69189" p-id="11725"></path><path d="M923.810749 531.167662c0 58.326137-47.272393 105.480937-105.480937 105.480937s-105.480937-47.272393-105.480937-105.480937" fill="#C69189" p-id="11726"></path><path d="M146.403307 854.430868c33.984382-47.272393 100.071658-57.973358 147.344052-23.988975s57.973358 100.071658 23.988975 147.344051" fill="#BDD36E" p-id="11727"></path><path d="M278.577859 63.853009c33.749196 47.389986 22.695452 128.999541-24.812126 162.86633-47.389986 33.749196-101.600367 22.695452-135.467157-24.812127" fill="#C69189" p-id="11728"></path><path d="M760.121268 91.487368c-0.235186 0.235186-9.172255 10.583372-9.407442 10.818558-45.038126 47.977951-34.337161 113.594855 13.758383 158.750574l98.778136-92.898484-103.129077-76.670648z" fill="#BDD36E" p-id="11729"></path><path d="M1023.059256 465.433165h-0.117593l-339.37345-3.175012c-6.702802-0.117593-12.582453-4.115756-15.051906-10.230592-2.469453-6.114837-1.058337-13.170418 3.645383-17.874139L912.521819 196.733119c6.467616-6.350023 16.815802-6.350023 23.165825 0.117593 67.380799 67.498392 104.187414 156.986679 103.834634 252.11943 0 4.350942-1.763895 8.58429-4.938906 11.641709-3.057418 3.175011-7.173174 4.821314-11.524116 4.821314z m-299.62701-35.748278l282.811208 2.70464c-3.410198-74.671566-32.33808-144.757005-82.550298-200.378503L723.432246 429.684887z" fill="" p-id="11730"></path><path d="M512 1024c-69.144695 0-136.172715-13.523197-199.320165-40.216812-60.913183-25.752871-115.71153-62.677079-162.748737-109.714286s-83.961415-101.71796-109.714286-162.748737C13.523197 648.172715 0 581.144695 0 512s13.523197-136.172715 40.216812-199.320165c25.752871-60.913183 62.677079-115.71153 109.714286-162.748737S251.649058 65.969683 312.679835 40.216812C375.827285 13.523197 442.855305 0 511.882407 0c69.967846 0 137.819017 13.875976 201.672026 41.275149 61.618741 26.458429 116.769867 64.205788 163.924667 112.301332 6.350023 6.467616 6.23243 16.815802-0.235186 23.283418L553.980707 495.889757l453.55627 4.350941c9.054662 0.117593 16.345429 7.525953 16.34543 16.580616-0.587965 68.556729-14.581534 135.114378-41.510335 197.55627-25.988057 60.442811-63.029858 114.653192-109.949472 161.220027C825.502986 922.164446 770.939825 958.735875 710.261828 984.25356c-62.794672 26.340836-129.587506 39.74644-198.261828 39.74644zM511.882407 32.926045C247.768489 32.926045 32.926045 247.886082 32.926045 512 32.926045 776.113918 247.886082 991.073955 512 991.073955c256.235186 0 467.549839-204.023886 478.48599-458.024805l-476.486909-4.586127c-6.702802-0.117593-12.582453-4.115756-15.051906-10.230593-2.469453-6.114837-1.058337-13.170418 3.645384-17.874139l339.608635-335.140101C752.830501 79.728066 636.060634 32.926045 511.882407 32.926045z" fill="" p-id="11731"></path><path d="M176.271934 633.238401c-47.860358 0-86.783647-38.923289-86.783647-86.783647 0-47.860358 38.923289-86.783647 86.783647-86.783647s86.783647 38.923289 86.783647 86.783647c0 47.860358-38.923289 86.783647-86.783647 86.783647z m0-140.641249c-29.751034 0-53.857602 24.106569-53.857602 53.857602s24.106569 53.857602 53.857602 53.857602 53.857602-24.106569 53.857602-53.857602-24.224162-53.857602-53.857602-53.857602zM642.175471 924.045935c-47.860358 0-86.783647-38.923289-86.783647-86.783647 0-47.860358 38.923289-86.783647 86.783647-86.783648 47.860358 0 86.783647 38.923289 86.783647 86.783648 0 47.860358-38.923289 86.783647-86.783647 86.783647z m0-140.64125c-29.751034 0-53.857602 24.106569-53.857602 53.857603 0 29.751034 24.106569 53.857602 53.857602 53.857602 29.751034 0 53.857602-24.106569 53.857602-53.857602 0-29.751034-24.224162-53.857602-53.857602-53.857603zM494.949012 352.543868c-47.860358 0-86.783647-38.923289-86.783647-86.783648s38.923289-86.783647 86.783647-86.783647 86.783647 38.923289 86.783648 86.783647-38.923289 86.783647-86.783648 86.783648z m0-140.64125c-29.751034 0-53.857602 24.106569-53.857602 53.857602 0 29.751034 24.106569 53.857602 53.857602 53.857603s53.857602-24.106569 53.857603-53.857603c0-29.751034-24.224162-53.857602-53.857603-53.857602zM437.681213 738.484153c-67.263206 0-121.94396-54.680753-121.94396-121.94396S370.418006 494.596233 437.681213 494.596233s121.94396 54.680753 121.943959 121.94396S504.826826 738.484153 437.681213 738.484153z m0-210.961875c-49.036288 0-89.017915 39.981626-89.017915 89.017915s39.981626 89.017915 89.017915 89.017914 89.017915-39.981626 89.017914-89.017914-39.981626-89.017915-89.017914-89.017915zM818.329812 652.758842c-67.263206 0-121.94396-54.680753-121.94396-121.943959 0-9.054662 7.40836-16.463023 16.463023-16.463023s16.463023 7.40836 16.463022 16.463023c0 49.036288 39.981626 89.017915 89.017915 89.017914s89.017915-39.981626 89.017914-89.017914c0-9.054662 7.40836-16.463023 16.463023-16.463023s16.463023 7.40836 16.463022 16.463023c0 67.263206-54.680753 121.94396-121.943959 121.943959zM330.318787 973.787781c-2.704639 0-5.291686-0.587965-7.878732-1.999081-7.996325-4.350942-10.936151-14.346348-6.585209-22.342673 23.518604-43.156638 7.525953-97.367019-35.513091-120.885623-42.0983-22.930638-93.956821-3.645384-115.829123 28.692697-5.0565 7.525953-15.287092 9.525034-22.813045 4.350941-7.525953-5.0565-9.525034-15.287092-4.350942-22.813045 15.051906-22.22508 39.864033-39.74644 67.968764-47.977952 31.16215-9.172255 63.50023-5.997244 90.899403 8.819477 59.031695 32.102894 80.903996 106.421681 48.801103 165.570969-3.175011 5.409279-8.937069 8.58429-14.699128 8.58429zM186.384933 267.28893c-2.234267 0-4.468535-0.117593-6.585209-0.235186-29.98622-1.999081-55.856684-17.168581-75.024345-43.979789-5.291686-7.40836-3.527791-17.638953 3.88057-22.930639s17.638953-3.527791 22.930638 3.88057c16.345429 22.930638 35.86587 30.456592 54.210381 30.456592 25.517685 0 48.683509-14.346348 58.326137-21.166744 39.981626-28.45751 49.389068-84.196601 20.931557-124.295819-5.291686-7.40836-3.527791-17.638953 3.88057-22.930639s17.638953-3.527791 22.930638 3.88057c38.923289 54.798346 26.10565 131.116215-28.692696 170.157097-25.047313 17.874139-51.505742 27.163987-76.788241 27.163987zM766.82407 274.109325c-3.998163 0-8.113918-1.528709-11.28893-4.468535-26.693615-25.164906-43.391824-56.562242-46.802021-88.547542-3.762977-33.984382 7.761139-67.145613 32.220487-93.368857 0.587965-0.705558 2.469453-2.822232 4.468535-5.056499 4.938907-5.644465 4.938907-5.644465 5.526871-6.23243 5.762058-5.762058 14.934313-6.467616 21.519523-1.52871l103.011483 76.788241c3.88057 2.939825 6.350023 7.40836 6.585209 12.229674s-1.646302 9.642627-5.174092 12.935232l-98.778135 92.898484c-3.175011 2.822232-7.290767 4.350942-11.28893 4.350942z m-1.881488-163.807074c-37.982545 40.687184-26.928801 89.370694 2.469453 124.178227l72.554892-68.203951-75.024345-55.974276z m-23.518604-23.048232l-0.470372 0.470372 0.117593-0.117593 0.352779-0.352779z" fill="" p-id="11732"></path></svg>